<mxfile host="app.diagrams.net" modified="2021-10-26T10:09:26.469Z" agent="5.0 (Windows NT 10.0; Win64; x64) AppleWebKit/537.36 (KHTML, like Gecko) Chrome/95.0.4638.54 Safari/537.36 Edg/95.0.1020.30" etag="NPjMToHHALR6clCzYuYD" version="15.5.4" type="github">
  <diagram id="SpZL9TZBPhHUdH-Rxulr" name="Page-1">
    <mxGraphModel dx="891" dy="539" grid="1" gridSize="10" guides="1" tooltips="1" connect="1" arrows="1" fold="1" page="1" pageScale="1" pageWidth="827" pageHeight="1169" math="0" shadow="0">
      <root>
        <mxCell id="0" />
        <mxCell id="1" parent="0" />
        <mxCell id="tj-WIx46oGCejM6nMy16-34" value="" style="rounded=0;whiteSpace=wrap;html=1;strokeColor=#994C00;" vertex="1" parent="1">
          <mxGeometry width="690" height="420" as="geometry" />
        </mxCell>
        <mxCell id="tj-WIx46oGCejM6nMy16-15" value="" style="rounded=0;whiteSpace=wrap;html=1;fillColor=#ffe6cc;strokeColor=#d79b00;" vertex="1" parent="1">
          <mxGeometry x="280" y="30" width="340" height="340" as="geometry" />
        </mxCell>
        <mxCell id="tj-WIx46oGCejM6nMy16-1" value="App" style="rounded=1;whiteSpace=wrap;html=1;fillColor=#ffe6cc;strokeColor=#d79b00;" vertex="1" parent="1">
          <mxGeometry x="20" y="80" width="120" height="100" as="geometry" />
        </mxCell>
        <mxCell id="tj-WIx46oGCejM6nMy16-5" value="LoRa 모듈" style="rounded=1;whiteSpace=wrap;html=1;fillColor=#f5f5f5;fontColor=#333333;strokeColor=#666666;" vertex="1" parent="1">
          <mxGeometry x="390" y="100" width="120" height="60" as="geometry" />
        </mxCell>
        <mxCell id="tj-WIx46oGCejM6nMy16-6" value="Arduino" style="rounded=1;whiteSpace=wrap;html=1;fillColor=#f5f5f5;fontColor=#333333;strokeColor=#666666;" vertex="1" parent="1">
          <mxGeometry x="390" y="260" width="120" height="60" as="geometry" />
        </mxCell>
        <mxCell id="tj-WIx46oGCejM6nMy16-17" value="Device" style="text;html=1;strokeColor=#994C00;fillColor=none;align=center;verticalAlign=middle;whiteSpace=wrap;rounded=0;" vertex="1" parent="1">
          <mxGeometry x="280" y="30" width="340" height="30" as="geometry" />
        </mxCell>
        <mxCell id="tj-WIx46oGCejM6nMy16-24" value="도어록 오픈 신호" style="endArrow=classic;html=1;rounded=0;" edge="1" parent="1">
          <mxGeometry width="50" height="50" relative="1" as="geometry">
            <mxPoint x="140" y="130" as="sourcePoint" />
            <mxPoint x="280" y="130" as="targetPoint" />
            <Array as="points" />
          </mxGeometry>
        </mxCell>
        <mxCell id="tj-WIx46oGCejM6nMy16-25" value="" style="endArrow=classic;html=1;rounded=0;entryX=0;entryY=0.5;entryDx=0;entryDy=0;" edge="1" parent="1" target="tj-WIx46oGCejM6nMy16-5">
          <mxGeometry width="50" height="50" relative="1" as="geometry">
            <mxPoint x="280" y="130" as="sourcePoint" />
            <mxPoint x="470" y="170" as="targetPoint" />
          </mxGeometry>
        </mxCell>
        <mxCell id="tj-WIx46oGCejM6nMy16-27" value="&lt;span style=&quot;background-color: rgb(255 , 230 , 204)&quot;&gt;앱으로부터 받은 신호 전달&lt;/span&gt;" style="endArrow=classic;html=1;rounded=0;exitX=0.5;exitY=1;exitDx=0;exitDy=0;entryX=0.5;entryY=0;entryDx=0;entryDy=0;" edge="1" parent="1" source="tj-WIx46oGCejM6nMy16-5" target="tj-WIx46oGCejM6nMy16-6">
          <mxGeometry width="50" height="50" relative="1" as="geometry">
            <mxPoint x="420" y="220" as="sourcePoint" />
            <mxPoint x="470" y="170" as="targetPoint" />
          </mxGeometry>
        </mxCell>
        <mxCell id="tj-WIx46oGCejM6nMy16-28" value="" style="endArrow=classic;html=1;rounded=0;labelBackgroundColor=#FFE6CC;" edge="1" parent="1">
          <mxGeometry width="50" height="50" relative="1" as="geometry">
            <mxPoint x="280" y="290" as="sourcePoint" />
            <mxPoint x="90" y="290" as="targetPoint" />
            <Array as="points">
              <mxPoint x="220" y="290" />
            </Array>
          </mxGeometry>
        </mxCell>
        <mxCell id="tj-WIx46oGCejM6nMy16-32" value="도어록 오픈" style="edgeLabel;html=1;align=center;verticalAlign=middle;resizable=0;points=[];" vertex="1" connectable="0" parent="tj-WIx46oGCejM6nMy16-28">
          <mxGeometry x="0.3607" relative="1" as="geometry">
            <mxPoint x="39" as="offset" />
          </mxGeometry>
        </mxCell>
        <mxCell id="tj-WIx46oGCejM6nMy16-33" value="동작 수행" style="endArrow=classic;html=1;rounded=0;labelBackgroundColor=#FFE6CC;exitX=0;exitY=0.5;exitDx=0;exitDy=0;" edge="1" parent="1" source="tj-WIx46oGCejM6nMy16-6">
          <mxGeometry width="50" height="50" relative="1" as="geometry">
            <mxPoint x="420" y="220" as="sourcePoint" />
            <mxPoint x="280" y="290" as="targetPoint" />
          </mxGeometry>
        </mxCell>
      </root>
    </mxGraphModel>
  </diagram>
</mxfile>
